<?xml version="1.0" standalone="no"?>
<!DOCTYPE svg PUBLIC "-//W3C//DTD SVG 20010904//EN"
 "http://www.w3.org/TR/2001/REC-SVG-20010904/DTD/svg10.dtd">
<svg version="1.0" xmlns="http://www.w3.org/2000/svg"
 width="414.000000pt" height="414.000000pt" viewBox="0 0 414.000000 414.000000"
 preserveAspectRatio="xMidYMid meet">

<g transform="translate(0.000000,414.000000) scale(0.100000,-0.100000)"
fill="#000000" stroke="none">
<path d="M1912 4004 c-45 -31 -20 -104 37 -104 36 0 51 17 51 56 0 32 -28 64
-55 64 -6 0 -21 -7 -33 -16z m48 -50 c0 -31 -23 -28 -28 4 -2 15 2 22 12 22
11 0 16 -9 16 -26z"/>
<path d="M2056 3988 c-10 -65 -4 -83 31 -86 51 -5 73 12 73 58 0 44 -18 60
-69 60 -26 0 -31 -4 -35 -32z m64 -33 c0 -14 -4 -25 -10 -25 -5 0 -10 11 -10
25 0 14 5 25 10 25 6 0 10 -11 10 -25z"/>
<path d="M1842 3953 c2 -46 7 -59 21 -61 13 -3 17 3 17 26 0 51 -12 92 -27 92
-11 0 -13 -13 -11 -57z"/>
<path d="M2187 4003 c-4 -3 -7 -28 -7 -55 0 -50 19 -66 38 -31 9 14 10 14 16
-5 10 -31 36 -28 36 3 0 14 6 34 13 46 10 17 9 22 -7 35 -20 14 -77 19 -89 7z"/>
<path d="M1724 3975 c-7 -17 1 -93 9 -102 10 -9 27 8 27 28 0 25 8 24 29 -3
18 -21 48 -17 34 5 -4 7 -7 28 -8 47 0 34 -1 35 -43 38 -31 2 -44 -1 -48 -13z"/>
<path d="M2401 3934 c-11 -43 -9 -64 8 -64 4 0 13 10 19 23 l11 22 0 -22 c1
-23 23 -43 28 -26 2 6 10 19 18 29 13 18 14 17 12 -10 -1 -16 3 -31 10 -33 12
-4 18 10 29 70 6 35 5 37 -19 37 -14 0 -28 -7 -32 -17 -6 -16 -9 -14 -21 10
-23 43 -50 35 -63 -19z"/>
<path d="M1625 3958 c-2 -7 -6 -34 -10 -60 -5 -40 -3 -48 9 -48 9 0 16 7 16
16 0 13 7 15 40 9 22 -4 40 -4 40 0 0 3 -14 26 -30 51 -30 43 -57 56 -65 32z"/>
<path d="M1541 3941 c-28 -7 -41 -31 -18 -31 9 0 21 -16 27 -35 6 -19 18 -35
26 -35 17 0 17 5 5 47 -6 20 -6 35 0 38 13 9 11 25 -3 24 -7 -1 -24 -4 -37 -8z"/>
<path d="M2566 3898 c-20 -23 -36 -45 -36 -50 0 -5 16 -6 35 -2 27 5 36 3 41
-10 3 -9 13 -16 21 -16 12 0 14 10 8 53 -11 83 -18 85 -69 25z"/>
<path d="M1468 3915 c-12 -12 19 -90 37 -94 14 -2 17 1 11 20 -3 13 -9 36 -12
52 -6 25 -23 35 -36 22z"/>
<path d="M2292 3903 c2 -10 10 -18 18 -18 22 0 18 29 -3 33 -14 3 -18 -1 -15
-15z"/>
<path d="M2666 3863 c-18 -54 -5 -87 15 -37 12 30 13 29 23 -18 9 -41 32 -34
51 16 19 49 11 82 -11 51 -13 -17 -14 -16 -23 9 -16 40 -37 32 -55 -21z"/>
<path d="M1376 3884 c-10 -9 -15 -23 -12 -31 3 -8 6 -17 6 -19 0 -2 14 -4 30
-4 17 0 30 -4 30 -10 0 -5 -11 -10 -25 -10 -14 0 -25 -4 -25 -10 0 -5 16 -10
35 -10 24 0 37 6 45 21 15 28 -3 49 -43 49 -17 0 -27 3 -23 7 4 4 14 8 22 8
23 0 21 20 -2 23 -12 2 -29 -5 -38 -14z"/>
<path d="M2786 3834 c-29 -61 -16 -94 36 -94 43 0 89 85 52 97 -5 2 -18 -12
-27 -32 -9 -19 -22 -35 -28 -35 -11 0 -9 17 6 66 12 38 -20 36 -39 -2z"/>
<path d="M1278 3847 c-33 -13 -34 -24 -11 -72 17 -36 46 -48 42 -17 -3 32 1
35 20 18 26 -24 48 -11 26 14 -9 10 -14 24 -10 30 8 13 -12 40 -29 39 -6 -1
-23 -6 -38 -12z m32 -27 c0 -5 -4 -10 -10 -10 -5 0 -10 5 -10 10 0 6 5 10 10
10 6 0 10 -4 10 -10z"/>
<path d="M1178 3804 c-16 -8 -28 -17 -28 -20 0 -5 40 -86 46 -93 6 -6 74 32
74 41 0 4 -13 5 -30 2 -31 -7 -43 9 -14 20 23 9 8 25 -19 20 l-22 -5 23 17
c43 32 20 46 -30 18z"/>
<path d="M2892 3764 c-13 -26 -22 -48 -20 -49 2 -2 36 -22 76 -44 72 -42 109
-47 77 -11 -15 17 -15 21 -1 49 20 37 20 47 1 55 -10 4 -21 -7 -35 -34 -20
-40 -21 -40 -45 -24 -28 18 -33 29 -9 20 27 -10 37 5 17 27 -17 20 -17 20 2
13 31 -12 37 -12 41 0 4 9 -55 44 -74 44 -5 0 -18 -21 -30 -46z"/>
<path d="M1117 3773 c-4 -3 -4 -23 -1 -42 l7 -36 -25 23 c-27 25 -48 29 -48 9
0 -21 76 -78 94 -71 19 7 19 4 5 62 -13 51 -21 66 -32 55z"/>
<path d="M1006 3702 c-7 -11 47 -92 61 -92 23 0 22 16 -3 58 -23 39 -46 53
-58 34z"/>
<path d="M3105 3650 c-17 -24 -25 -46 -21 -56 6 -15 8 -15 26 1 18 17 19 16
17 -11 -3 -44 27 -42 57 3 32 46 34 67 6 60 -15 -4 -20 0 -20 13 0 14 -18 30
-34 30 -2 0 -16 -18 -31 -40z"/>
<path d="M963 3660 c4 -16 1 -19 -16 -15 -12 3 -29 1 -37 -4 -12 -8 -10 -17
15 -52 37 -52 61 -64 51 -25 -6 25 -5 26 15 16 17 -9 24 -9 35 2 11 11 9 20
-14 55 -28 45 -58 59 -49 23z"/>
<path d="M3204 3584 c-23 -29 -26 -40 -18 -62 5 -16 21 -31 38 -37 25 -9 31
-6 63 28 26 30 32 41 23 52 -8 10 -8 14 1 17 22 7 -2 30 -27 25 -14 -2 -27 0
-30 4 -10 16 -23 9 -50 -27z m80 -2 c6 -11 -51 -68 -60 -60 -7 7 36 68 47 68
4 0 10 -4 13 -8z"/>
<path d="M855 3600 c-3 -5 6 -25 20 -44 18 -24 23 -36 14 -41 -7 -5 -21 5 -36
24 -27 34 -41 39 -49 16 -7 -18 43 -85 65 -85 26 0 61 29 61 51 0 21 -46 89
-61 89 -4 0 -11 -4 -14 -10z"/>
<path d="M3336 3525 c-16 -9 -40 -27 -53 -41 -19 -21 -21 -29 -12 -40 10 -12
15 -12 32 3 19 18 19 17 13 -13 -5 -21 -2 -35 8 -43 11 -10 21 -5 50 26 21 22
35 45 32 55 -2 9 1 19 8 21 13 5 -21 47 -38 47 -6 0 -24 -7 -40 -15z m36 -47
c-8 -8 -9 -4 -5 13 4 13 8 18 11 10 2 -7 -1 -18 -6 -23z"/>
<path d="M701 3457 c-8 -11 -6 -18 9 -32 11 -10 20 -24 20 -31 0 -11 -6 -10
-32 1 -29 12 -35 11 -50 -2 -16 -14 -15 -19 10 -69 29 -59 49 -69 54 -27 2 18
10 29 23 32 23 4 95 78 95 98 0 18 -15 17 -30 -2 -12 -14 -17 -12 -45 15 -35
34 -38 35 -54 17z"/>
<path d="M3383 3406 l-37 -33 63 -76 c62 -75 89 -89 77 -42 -5 21 -2 24 31 27
21 2 38 8 38 15 0 6 -17 30 -39 54 -21 24 -45 53 -53 66 -21 31 -37 29 -80
-11z m87 -84 c-31 -3 -60 11 -60 30 0 6 7 5 15 -2 11 -9 19 -10 26 -3 8 8 7
13 0 17 -6 4 -11 13 -11 19 1 7 14 -4 31 -23 l30 -35 -31 -3z"/>
<path d="M593 3327 c-42 -48 -71 -94 -65 -103 4 -5 24 -22 45 -38 33 -24 41
-26 53 -15 15 16 10 26 -29 56 -38 29 -14 42 25 13 52 -38 80 -4 33 40 -14 13
-25 31 -25 41 0 28 -15 30 -37 6z"/>
<path d="M3576 3251 c-4 -5 -4 -15 -1 -23 3 -8 -7 -21 -25 -31 -30 -18 -39
-40 -20 -52 6 -3 24 3 40 15 24 17 34 19 44 10 27 -22 28 10 2 51 -28 41 -32
44 -40 30z"/>
<path d="M487 3172 c-34 -36 -34 -55 0 -77 25 -17 26 -19 8 -25 -12 -4 -24 -2
-30 7 -8 11 -14 11 -33 -3 -17 -12 -22 -24 -20 -47 4 -38 30 -47 59 -21 10 9
19 12 19 7 0 -6 -7 -13 -15 -17 -22 -8 -19 -36 4 -36 23 0 51 41 51 75 0 15 6
25 14 25 21 0 30 19 16 35 -7 9 -9 26 -5 45 7 32 -7 60 -29 60 -7 0 -24 -13
-39 -28z"/>
<path d="M3592 3134 c-28 -19 -29 -57 -2 -84 24 -24 48 -25 78 -4 26 18 28 50
6 82 -18 26 -50 28 -82 6z m68 -32 c0 -14 -23 -32 -42 -32 -21 0 -23 11 -6 28
13 13 48 16 48 4z"/>
<path d="M3671 3025 c-42 -38 -47 -50 -32 -73 12 -20 121 -6 121 15 0 12 -10
14 -40 11 l-39 -3 25 26 c20 21 24 31 16 44 -8 16 -14 13 -51 -20z"/>
<path d="M366 2948 c-9 -12 -16 -30 -16 -40 0 -27 37 -58 69 -58 32 0 46 13
56 52 14 57 -75 94 -109 46z m64 -33 c7 -9 10 -18 6 -22 -9 -10 -58 16 -51 27
9 15 31 12 45 -5z"/>
<path d="M3667 2913 c-12 -11 -8 -23 7 -23 24 0 40 -28 26 -45 -13 -16 -6 -35
14 -35 19 0 79 79 72 96 -4 10 -21 14 -59 14 -30 0 -57 -3 -60 -7z"/>
<path d="M323 2834 c-4 -10 1 -22 10 -29 24 -17 21 -25 -8 -25 -18 0 -25 -5
-25 -19 0 -26 85 -60 103 -42 9 10 8 15 -5 25 -25 18 -22 34 5 38 38 5 25 31
-26 50 -44 16 -48 17 -54 2z"/>
<path d="M3750 2806 c-45 -16 -53 -46 -13 -46 25 -1 26 -2 11 -14 -10 -7 -18
-23 -18 -36 0 -21 1 -22 24 -7 13 9 32 14 43 11 32 -9 46 18 33 65 -12 45 -21
48 -80 27z m55 -35 c3 -5 1 -12 -5 -16 -5 -3 -10 1 -10 9 0 18 6 21 15 7z"/>
<path d="M1656 2274 c-9 -23 -2 -28 13 -10 7 8 8 17 3 20 -6 3 -13 -1 -16 -10z"/>
<path d="M2430 2273 c0 -4 5 -15 10 -23 8 -13 10 -13 10 2 0 9 -4 20 -10 23
-5 3 -10 3 -10 -2z"/>
<path d="M3280 1370 c0 -5 5 -10 11 -10 5 0 7 5 4 10 -3 6 -8 10 -11 10 -2 0
-4 -4 -4 -10z"/>
<path d="M760 1334 c0 -8 5 -12 10 -9 6 3 10 10 10 16 0 5 -4 9 -10 9 -5 0
-10 -7 -10 -16z"/>
<path d="M880 1239 c0 -5 5 -7 10 -4 6 3 10 8 10 11 0 2 -4 4 -10 4 -5 0 -10
-5 -10 -11z"/>
<path d="M508 1091 c-7 -10 -17 -18 -23 -17 -18 2 -17 -45 1 -65 22 -25 51
-24 66 1 7 11 18 20 25 20 19 0 15 45 -5 63 -24 22 -48 21 -64 -2z"/>
<path d="M3524 1035 c-19 -29 -12 -55 16 -62 38 -10 21 -25 -20 -18 -27 5 -46
3 -55 -5 -13 -11 -12 -18 9 -56 22 -39 22 -43 6 -34 -10 6 -22 15 -25 20 -10
16 -40 12 -58 -8 -26 -29 -22 -77 9 -97 35 -23 68 -13 94 30 12 19 26 35 31
35 6 0 9 9 7 20 -2 14 5 25 22 33 14 7 25 19 25 27 0 8 10 21 22 28 23 13 40
53 29 71 -8 12 -65 41 -82 41 -8 0 -21 -11 -30 -25z m-94 -205 c0 -5 -4 -10
-10 -10 -5 0 -10 5 -10 10 0 6 5 10 10 10 6 0 10 -4 10 -10z"/>
<path d="M556 997 c-44 -37 -45 -31 18 -109 25 -30 33 -35 49 -27 17 9 17 8 7
-10 -6 -12 -8 -26 -5 -31 9 -15 32 -12 39 5 3 8 12 15 20 15 13 0 12 -4 -1
-30 -26 -54 2 -76 57 -45 39 23 46 17 17 -13 -51 -53 -23 -82 29 -31 39 38 42
51 14 79 -16 16 -25 18 -40 10 -30 -16 -34 -12 -16 15 18 27 14 45 -10 45 -8
0 -14 6 -14 14 0 8 -13 28 -30 46 -16 18 -30 34 -30 36 0 12 -45 64 -54 64 -6
0 -29 -15 -50 -33z m84 -55 c0 -12 -23 -32 -37 -32 -7 0 -13 5 -13 11 0 5 5 7
10 4 6 -3 13 1 16 9 6 17 24 22 24 8z"/>
<path d="M3310 784 c-11 -12 -10 -21 3 -50 24 -48 21 -52 -12 -20 -29 28 -58
28 -47 0 3 -9 -1 -14 -13 -14 -41 0 -41 -24 -1 -70 31 -36 41 -42 49 -31 5 8
7 20 4 27 -3 8 2 11 16 7 14 -3 23 0 27 11 3 9 12 16 19 16 7 0 18 13 23 29 7
19 17 29 28 28 10 -1 20 6 22 15 2 12 -10 24 -45 39 -26 12 -51 24 -54 26 -4
1 -12 -4 -19 -13z"/>
<path d="M796 721 c-24 -27 -17 -72 13 -87 25 -13 51 -9 51 8 0 5 -9 12 -20
15 -24 6 -25 16 -3 38 16 16 17 16 25 -4 9 -24 38 -29 38 -5 0 8 -5 24 -10 35
-14 26 -71 26 -94 0z"/>
<path d="M890 645 c-20 -21 -30 -40 -27 -49 10 -24 21 -19 55 23 36 45 37 47
18 54 -7 3 -28 -10 -46 -28z"/>
<path d="M3142 638 c-32 -32 2 -108 48 -108 25 0 60 34 60 58 0 44 -78 80
-108 50z m56 -52 c3 -12 -1 -17 -10 -14 -7 3 -15 13 -16 22 -3 12 1 17 10 14
7 -3 15 -13 16 -22z"/>
<path d="M935 615 c-14 -13 -25 -33 -25 -44 0 -26 26 -51 54 -51 52 0 76 75
34 104 -30 21 -35 20 -63 -9z m55 -28 c0 -14 -20 -37 -32 -37 -12 0 -10 24 4
38 16 16 28 15 28 -1z"/>
<path d="M3071 576 c-6 -7 -8 -22 -4 -32 6 -17 5 -17 -10 -6 -18 15 -57 7 -57
-11 0 -17 49 -87 60 -87 6 0 10 7 10 15 0 9 8 14 23 12 15 -1 22 3 21 14 -1
11 5 15 16 12 30 -8 32 15 4 57 -28 42 -44 49 -63 26z"/>
<path d="M1055 523 c-30 -45 -31 -52 -7 -69 28 -22 70 -17 87 10 18 27 11 53
-19 78 -29 24 -32 23 -61 -19z m53 -25 c-2 -13 -11 -24 -21 -26 -15 -3 -16 0
-6 22 15 32 32 34 27 4z"/>
<path d="M1153 460 c-13 -21 -23 -41 -23 -44 0 -10 61 -37 73 -33 7 2 2 9 -11
16 -30 16 -29 35 3 27 27 -7 36 11 10 20 -8 4 -12 10 -9 15 3 5 13 5 24 -1 12
-6 21 -7 25 0 5 8 -43 40 -62 40 -4 0 -18 -18 -30 -40z"/>
<path d="M2895 443 c6 -26 6 -27 -13 -10 -43 39 -59 15 -31 -47 21 -49 44 -62
37 -21 -6 29 -1 31 21 11 11 -10 22 -12 31 -6 12 7 11 16 -9 54 -25 51 -47 62
-36 19z"/>
<path d="M2780 438 c0 -59 46 -140 63 -110 7 11 -31 92 -43 92 -8 0 -8 6 0 20
9 16 8 20 -5 20 -9 0 -15 -9 -15 -22z"/>
<path d="M1271 399 c-14 -27 -18 -46 -12 -52 7 -7 15 0 23 19 l13 28 5 -34 c7
-47 26 -48 49 -1 25 48 25 51 6 51 -8 0 -15 -4 -15 -10 0 -20 -19 -10 -22 12
-5 37 -26 31 -47 -13z"/>
<path d="M2973 423 c-15 -6 -17 -33 -3 -33 6 0 10 -7 10 -16 0 -8 5 -12 10 -9
12 7 14 52 3 58 -5 2 -14 2 -20 0z"/>
<path d="M1387 393 c-2 -5 -10 -25 -17 -46 -11 -34 -10 -40 7 -52 21 -16 53
-20 53 -6 0 5 -9 13 -20 16 -11 4 -18 11 -14 16 3 5 14 7 25 4 22 -7 26 13 4
21 -26 10 -16 25 13 18 36 -9 36 -8 22 -49 -15 -44 1 -71 20 -35 6 12 17 19
25 16 21 -8 26 6 7 20 -22 16 -13 25 17 17 23 -6 25 -26 6 -75 -5 -13 -2 -18
9 -18 9 0 19 7 22 15 8 20 24 9 24 -16 0 -10 7 -19 15 -19 9 0 15 9 15 24 0
14 5 28 10 31 20 12 10 43 -17 52 -56 20 -108 36 -123 38 -8 1 -32 10 -52 19
-43 18 -45 19 -51 9z m218 -93 c-3 -5 -10 -10 -16 -10 -5 0 -9 5 -9 10 0 6 7
10 16 10 8 0 12 -4 9 -10z"/>
<path d="M2707 388 c-16 -5 -26 -15 -24 -22 2 -6 10 -28 18 -48 15 -44 39 -50
39 -10 1 24 2 25 14 10 7 -10 18 -18 25 -18 13 0 15 26 1 35 -5 3 -7 12 -3 20
6 17 -14 45 -31 44 -6 0 -24 -5 -39 -11z m33 -28 c0 -5 -4 -10 -10 -10 -5 0
-10 5 -10 10 0 6 5 10 10 10 6 0 10 -4 10 -10z"/>
<path d="M2647 363 c-4 -7 -4 -31 -1 -54 9 -52 -13 -51 -31 2 -7 19 -16 34
-21 33 -23 -1 -91 -17 -104 -25 -12 -7 -11 -10 6 -15 14 -3 24 -18 30 -42 12
-49 30 -38 26 16 -4 52 18 58 39 10 23 -52 90 -48 89 6 -1 32 -25 82 -33 69z"/>
<path d="M1656 288 c-21 -29 -20 -51 2 -71 36 -33 74 -18 87 34 13 52 -58 81
-89 37z m52 -25 c-4 -34 -28 -43 -28 -10 0 25 7 37 22 37 5 0 8 -12 6 -27z"/>
<path d="M2078 298 c-3 -7 -6 -41 -7 -76 l-2 -62 33 2 c18 1 39 6 46 11 8 7
21 6 37 -3 33 -18 40 -8 27 38 -26 87 -63 94 -84 15 l-13 -48 -5 50 c-3 28 -2
58 3 68 6 13 3 17 -12 17 -10 0 -21 -6 -23 -12z"/>
<path d="M2426 298 c-2 -7 -7 -32 -10 -55 -5 -34 -3 -43 9 -43 8 0 15 5 15 11
0 7 12 9 35 5 41 -8 42 -4 12 49 -23 41 -54 57 -61 33z"/>
<path d="M1772 283 c-5 -10 -12 -34 -16 -54 -7 -40 2 -49 50 -49 29 0 32 16 4
25 -17 5 -19 12 -14 44 7 42 -9 63 -24 34z"/>
<path d="M2339 276 c-12 -25 -13 -25 -26 -7 -8 13 -20 17 -34 14 -18 -5 -20
-11 -15 -42 3 -20 6 -44 6 -53 0 -10 7 -18 15 -18 9 0 15 9 15 22 0 21 0 21
14 2 16 -21 31 -13 39 21 4 18 5 18 6 -2 1 -14 7 -23 17 -23 23 0 16 104 -8
108 -11 2 -22 -6 -29 -22z"/>
<path d="M1851 261 c-15 -28 -14 -66 3 -80 23 -19 69 -9 82 17 l12 23 6 -25
c7 -27 36 -40 77 -34 22 3 24 8 22 48 -3 68 -46 91 -86 46 l-21 -24 -11 22
c-15 29 -70 34 -84 7z m50 -24 c-1 -4 -1 -14 -1 -22 0 -8 -4 -15 -10 -15 -5 0
-10 12 -10 26 0 14 5 24 11 22 6 -2 10 -7 10 -11z m109 -12 c-7 -8 -8 -20 -4
-26 4 -8 3 -9 -4 -5 -13 8 -16 39 -6 49 13 12 25 -5 14 -18z"/>
</g>
</svg>
